<svg class="{{ include.class }}" viewBox="0 0 100 100" xmlns="http://www.w3.org/2000/svg">
  <g fill="none" fill-rule="evenodd">
    <circle fill="rgba(255,255,255,0.75)" fill-rule="nonzero" cx="50" cy="50" r="50"/>
    <path fill="#000" d="M100 50c0-27.614-22.385-50-50-50C22.386 0 0 22.386 0 50s22.386 50 50 50 50-22.386 50-50zM28.413 82.22h.977c.919 0 1.591-.209 2.011-.628.422-.42.633-1.083.633-1.993 0-.907-.211-1.57-.633-1.988-.42-.423-1.092-.633-2.01-.633h-.978v5.242zm-1.76 1.482v-8.218h2.242c.884 0 1.58.06 2.086.185.51.123.957.33 1.341.617.5.37.876.838 1.131 1.4.256.564.385 1.206.385 1.924 0 .73-.13 1.376-.393 1.94a3.547 3.547 0 0 1-1.149 1.394 3.71 3.71 0 0 1-1.25.582c-.458.117-1.128.176-2.01.176h-2.383zm18.139-3.126l-.921-2.656a4.358 4.358 0 0 1-.1-.403 13.967 13.967 0 0 1-.13-.703c-.048.266-.096.505-.14.715a4.6 4.6 0 0 1-.102.424l-.887 2.623h2.28zm-5.234 3.126l3.128-8.218h2.01l3.173 8.218H45.87l-.668-1.747h-3.185l-.572 1.747h-1.887zm16.743 0v-3.75l-2.782-4.468h2.057l1.219 2.25c.06.114.123.256.186.428.063.173.128.369.198.594a5.145 5.145 0 0 1 .398-1.034l1.209-2.238h2.055L58.06 79.95v3.751H56.3zm11.582-1.044l.979-1.105c.124.302.32.542.595.717.273.174.579.26.92.26.41 0 .736-.098.975-.291.24-.196.358-.458.358-.788 0-.389-.398-.776-1.194-1.162a18.353 18.353 0 0 1-.61-.304c-.72-.373-1.216-.74-1.494-1.097-.277-.357-.415-.782-.415-1.277 0-.677.27-1.233.805-1.67.536-.435 1.234-.652 2.09-.652.496 0 .926.085 1.287.26.36.175.68.446.958.816l-1.04.992a1.273 1.273 0 0 0-.49-.536 1.456 1.456 0 0 0-.735-.177c-.35 0-.63.086-.842.26a.838.838 0 0 0-.32.677c0 .436.421.832 1.267 1.192.168.07.296.126.386.168.696.318 1.211.677 1.546 1.078.335.4.503.858.503 1.37 0 .771-.263 1.386-.79 1.844-.525.458-1.231.688-2.119.688-.628 0-1.167-.11-1.617-.326a2.177 2.177 0 0 1-1.003-.937zM29.187 41.75v-4.153h1.18v.65c.218-.27.45-.468.7-.597.25-.129.528-.192.833-.192.32 0 .591.055.81.163.22.109.39.273.518.496.062.115.107.247.133.391.028.147.04.374.04.684V41.75h-1.204v-2.055c0-.51-.06-.848-.179-1.012-.118-.163-.322-.245-.61-.245-.166 0-.32.034-.459.104a.961.961 0 0 0-.508.632 2.52 2.52 0 0 0-.049.582v1.995h-1.205zm-2.43 0v-4.153h1.206v4.153h-1.206zm-.104-5.86c0-.193.07-.357.207-.496a.678.678 0 0 1 .496-.208.69.69 0 0 1 .502.205c.14.137.209.304.209.499a.677.677 0 0 1-.21.501.687.687 0 0 1-.5.208.67.67 0 0 1-.497-.212.694.694 0 0 1-.207-.497zm.082-2.788v-3.204h-.58v-.943h.58V27.58h1.204v1.376h.579v.943h-.58v3.204h-1.203zm2.527 0V26.55h1.178v2.33a4.897 4.897 0 0 1-.05.76c.247-.29.495-.5.745-.63a1.8 1.8 0 0 1 .835-.192c.32 0 .593.055.812.164.222.11.393.273.514.493.062.116.107.247.132.391.028.145.042.373.042.682V33.102h-1.204V31.05c0-.51-.06-.847-.177-1.01-.119-.163-.322-.246-.61-.246-.165 0-.318.035-.458.104a.955.955 0 0 0-.348.294.933.933 0 0 0-.158.339c-.034.126-.05.32-.05.58V33.101h-1.203zM37.47 30.6c-.033-.262-.129-.46-.286-.595-.155-.134-.368-.2-.64-.2-.268 0-.485.066-.647.2-.162.134-.265.333-.31.595h1.883zm1.19.728h-3.111c.047.298.154.522.325.67.169.147.398.222.688.222.22 0 .41-.042.57-.128.16-.083.292-.212.4-.383l.968.485c-.225.362-.5.632-.82.809-.321.176-.703.263-1.145.263-.67 0-1.202-.2-1.594-.6-.392-.4-.587-.937-.587-1.613 0-.651.205-1.187.614-1.606.41-.42.935-.63 1.575-.63.66 0 1.18.197 1.565.59.382.394.574.93.574 1.608a4.702 4.702 0 0 1-.022.313zm6.938-4.663l.954 3.489c.061.221.119.46.17.714.053.256.102.541.15.857a7.71 7.71 0 0 1 .059-.788c.033-.26.084-.522.151-.783l.836-3.489h1.356l-1.682 6.431H46.27l-1.152-4.103a4.858 4.858 0 0 1-.197-1.16 7.762 7.762 0 0 1-.068.617 4.748 4.748 0 0 1-.12.543l-1.16 4.103H42.25l-1.683-6.43h1.376l.847 3.57c.047.205.085.427.115.666.028.237.051.499.065.779.056-.372.157-.843.308-1.414l.021-.092.946-3.51h1.353zm11.149 3.23c0 .46-.086.894-.257 1.303a3.203 3.203 0 0 1-.74 1.08 3.51 3.51 0 0 1-2.429.988 3.41 3.41 0 0 1-1.151-.198 3.614 3.614 0 0 1-1.035-.575 3.296 3.296 0 0 1-.928-1.154 3.295 3.295 0 0 1-.323-1.445c0-.463.086-.896.255-1.303.169-.404.418-.765.746-1.082a3.458 3.458 0 0 1 1.121-.728c.426-.173.866-.26 1.315-.26.448 0 .885.087 1.308.26a3.52 3.52 0 0 1 1.121.728c.325.317.572.678.741 1.085.17.407.256.84.256 1.3zm-3.426 2.149c.584 0 1.065-.204 1.444-.613.379-.408.57-.92.57-1.535 0-.61-.192-1.121-.577-1.537a1.88 1.88 0 0 0-1.437-.624c-.583 0-1.066.207-1.449.623-.385.413-.576.926-.576 1.538 0 .62.189 1.134.567 1.539.377.407.865.609 1.458.609zm9.234 1.052H60.97l-1.688-3.003v3.003h-1.376v-6.43h1.97c.78 0 1.366.15 1.756.455.387.302.582.76.582 1.369 0 .442-.134.82-.4 1.133-.265.314-.609.498-1.03.55l1.772 2.923zm-3.274-3.688h.207c.555 0 .922-.061 1.1-.183.179-.12.267-.332.267-.634 0-.316-.096-.541-.288-.674-.19-.133-.55-.2-1.079-.2h-.207v1.691zm4.075 3.688v-6.43h1.375v5.261h2.195v1.17h-3.57zm5.811-1.16h.764c.72 0 1.246-.163 1.575-.492.33-.329.494-.847.494-1.56 0-.707-.165-1.227-.494-1.554-.33-.331-.855-.496-1.575-.496h-.764v4.102zm-1.376 1.16v-6.43h1.754c.691 0 1.234.047 1.632.145.398.096.748.258 1.05.482.39.29.685.656.884 1.096.201.44.3.943.3 1.505 0 .57-.1 1.076-.306 1.517a2.788 2.788 0 0 1-.9 1.092c-.293.21-.619.362-.977.454-.359.093-.883.14-1.574.14H67.79zm-.993-9.311v-7.537h2.055c.81 0 1.448.056 1.914.17.467.113.876.303 1.23.565.456.34.802.77 1.036 1.285.235.517.353 1.106.353 1.764 0 .669-.12 1.261-.361 1.778-.24.517-.591.944-1.053 1.279a3.393 3.393 0 0 1-1.146.533c-.42.108-1.035.163-1.844.163h-2.184zm1.612-1.36h.897c.843 0 1.46-.191 1.844-.577.386-.384.58-.992.58-1.827 0-.83-.194-1.438-.58-1.823-.384-.387-1.001-.58-1.844-.58h-.897v4.807zm-10.403 1.36v-7.537h1.674l3.337 4.386c.094.123.2.298.316.522.113.225.233.49.359.797a6.498 6.498 0 0 1-.083-.665c-.019-.219-.027-.495-.027-.824v-4.216h1.54v7.537H63.54l-3.43-4.47a3.262 3.262 0 0 1-.312-.521 10.659 10.659 0 0 1-.36-.807c.036.218.064.436.08.657.019.223.027.5.027.837v4.304h-1.54zm-1.665-7.537v4.692c0 1.021-.27 1.785-.809 2.29-.54.504-1.35.755-2.436.755-1.102 0-1.921-.251-2.461-.756-.54-.504-.809-1.268-.809-2.29v-4.691h1.603v4.44c0 .621.137 1.088.41 1.403.277.315.686.47 1.233.47.548 0 .963-.157 1.245-.474.281-.316.422-.781.422-1.4v-4.44h1.602zM44.487 22.55c.683 0 1.247-.238 1.692-.718.444-.478.668-1.077.668-1.8 0-.712-.226-1.313-.675-1.8a2.2 2.2 0 0 0-1.685-.73c-.683 0-1.249.241-1.699.728-.45.485-.675 1.086-.675 1.803 0 .728.222 1.33.665 1.804.442.476 1.013.713 1.71.713zm4.014-2.52c0 .54-.1 1.05-.3 1.53-.202.48-.49.903-.867 1.266-.39.374-.832.66-1.324.86a4.025 4.025 0 0 1-2.872.064 4.183 4.183 0 0 1-1.212-.673 3.832 3.832 0 0 1-1.09-1.353 3.872 3.872 0 0 1-.377-1.693c0-.542.1-1.05.299-1.526a3.75 3.75 0 0 1 .875-1.269 4.033 4.033 0 0 1 1.313-.854 4.028 4.028 0 0 1 3.073 0c.496.202.933.486 1.315.854.38.37.67.794.868 1.272.199.477.3.984.3 1.523zm-12.49-.568h.243c.65 0 1.08-.072 1.289-.214.209-.143.312-.391.312-.743 0-.371-.112-.634-.337-.79-.223-.157-.645-.235-1.264-.235h-.243v1.982zm3.836 4.322h-1.858l-1.978-3.52v3.52h-1.614v-7.537h2.31c.915 0 1.6.177 2.057.534.455.356.683.888.683 1.604 0 .518-.156.96-.467 1.328-.313.37-.715.583-1.209.645l2.076 3.426zm-13.86 0l2.87-7.537H30.7l2.909 7.537h-1.832l-.613-1.603h-2.92l-.525 1.603h-1.731zm4.8-2.867l-.844-2.436a4.761 4.761 0 0 1-.092-.37c-.038-.175-.077-.39-.118-.645a24.18 24.18 0 0 1-.13.657 4.674 4.674 0 0 1-.092.39l-.813 2.404h2.09zM98.065 50c0-26.545-21.52-48.064-48.064-48.064C23.455 1.936 1.937 23.456 1.937 50S23.455 98.063 50 98.063c26.544 0 48.064-21.518 48.064-48.063zm-1.976 0C96.088 24.546 75.454 3.912 50 3.912S3.913 24.546 3.913 50c0 25.453 20.633 46.087 46.087 46.087 25.453 0 46.088-20.634 46.088-46.087z" />
    <path fill="red" d="M42.515 36.357v27.565h3.575v4.637h-3.575v4.025h-4.927v-4.025H19.776l22.739-32.202zM28.72 63.922h8.868V51.677L28.72 63.922zm29.55-26.83c4.3-1.111 9.03-.6 13.16 1.8l.1.055a17.397 17.397 0 0 1 8 10.61c1.12 4.283.614 8.99-1.774 13.099l-.042.077c-2.43 4.122-6.331 6.877-10.658 7.992A17.44 17.44 0 0 1 53.9 68.92l-.088-.049a17.353 17.353 0 0 1-8.007-10.603c-1.12-4.298-.61-9.02 1.794-13.132l.026-.042c2.43-4.128 6.323-6.888 10.645-8.003zm.152 3.827a21.199 21.199 0 0 1 3.89-.331 13.046 13.046 0 0 0-2.36-.673l-.602-.091a3.202 3.202 0 0 0-.928 1.095zm.461 3.154a23.645 23.645 0 0 1 3.775-2.17 19.874 19.874 0 0 0-4.49.397c.056.595.306 1.199.715 1.773zm-5.213 4.75a28.35 28.35 0 0 1 4.16-3.974c-.508-.708-.834-1.467-.942-2.236a16.624 16.624 0 0 0-3.246 1.287c-.528.279-1.037.587-1.52.922.003 1.35.56 2.727 1.548 4.001zm-1.43 1.82l.584-.783c-1.044-1.275-1.719-2.661-1.935-4.07A11.803 11.803 0 0 0 48 49.613c-.042 1.667.66 3.375 1.938 4.96a23.657 23.657 0 0 1 2.303-3.93zm3.927 13.533c.194-1.037.45-2.129.738-3.23-2.583-1.03-4.81-2.411-6.512-3.982-.468 1.43-.699 2.835-.64 4.149.454.483.964.951 1.523 1.398 1.32 1.055 2.912 1.991 4.711 2.74l.18-1.075zm1.601-6.276a75.318 75.318 0 0 1 1.209-3.664c-2.095-.88-3.893-2.059-5.258-3.398l-.418.567c-.986 1.374-1.806 2.803-2.407 4.227l.14.137c1.587 1.537 3.717 2.896 6.216 3.909l.518-1.778zm4.386-11.335a67.734 67.734 0 0 1 1.98-3.868c-1.505.588-2.978 1.39-4.37 2.352.646.585 1.456 1.105 2.39 1.516zm-1.271 2.818l.72-1.632c-1.149-.512-2.141-1.172-2.914-1.917a27.018 27.018 0 0 0-4.146 3.979c1.25 1.254 2.92 2.363 4.884 3.195.461-1.228.95-2.444 1.456-3.625zm4.466 17.704c.487-1.29.858-2.731 1.129-4.263a26.004 26.004 0 0 1-5.514-.63l-.068-.016a26.552 26.552 0 0 1-2.758-.777 44.98 44.98 0 0 0-.687 3.015l-.004.02a25.87 25.87 0 0 0-.208 1.292c.862.303 1.763.562 2.698.772 1.86.418 3.689.607 5.412.587zM66.44 47.53c-.269-1.676-.615-3.196-1.015-4.466a65.04 65.04 0 0 0-2.042 3.96c.281.086.57.163.865.229l.025.006c.74.165 1.469.253 2.167.271zm.613 7.035a52.17 52.17 0 0 0-.422-5.726 12.589 12.589 0 0 1-2.64-.305l-.027-.006c-.39-.087-.77-.191-1.137-.31l-.74 1.677a86.219 86.219 0 0 0-1.44 3.581c.67.232 1.37.433 2.092.597l.104.02c1.446.323 2.863.474 4.21.472zm-.055 3.517c.039-.735.059-1.472.064-2.211a20.699 20.699 0 0 1-4.495-.499l-.121-.026a21.378 21.378 0 0 1-2.248-.643 73.056 73.056 0 0 0-1.176 3.569l-.543 1.865c.865.299 1.766.554 2.7.766l.066.014c1.87.416 3.703.608 5.436.6.153-1.116.257-2.27.317-3.435zm7.918 1.439a18.387 18.387 0 0 0-.747-5.29c-.513.283-1.067.532-1.657.746-1.242.45-2.643.74-4.143.847a49.452 49.452 0 0 1-.066 2.324 42.173 42.173 0 0 1-.3 3.324c1.652-.107 3.188-.403 4.55-.868a12.2 12.2 0 0 0 2.363-1.083zm-.893 5.026c.409-1.107.675-2.277.803-3.483a13.99 13.99 0 0 1-1.853.78c-1.544.524-3.292.85-5.166.948-.256 1.498-.602 2.926-1.053 4.23a17.893 17.893 0 0 0 2.633-.4c1.842-.425 3.432-1.133 4.636-2.075zM70.28 46.772a23.353 23.353 0 0 0-3.422-3.484c.35 1.232.654 2.653.896 4.193a7.906 7.906 0 0 0 1.826-.406 5.75 5.75 0 0 0 .7-.303zm3.478 6.19a21.889 21.889 0 0 0-2.686-5.133c-.326.182-.678.34-1.052.475a9.164 9.164 0 0 1-2.083.47c.236 1.817.384 3.766.423 5.744 1.344-.105 2.597-.367 3.707-.768.612-.22 1.177-.486 1.691-.787zm-1.629-8.268a18.171 18.171 0 0 0-3.65-1.734 24.55 24.55 0 0 1 2.87 3.057c.39-.383.659-.827.78-1.323zm1.748 1.264l-.623-.493a4.216 4.216 0 0 1-1.118 1.607 23.162 23.162 0 0 1 2.728 5.108c.925-.79 1.564-1.752 1.82-2.853l.034-.16a14.119 14.119 0 0 0-2.841-3.21zm-3.885-4.282a10.77 10.77 0 0 0-1.246-.007 20.13 20.13 0 0 1 3.284 1.447 4.344 4.344 0 0 0-.71-1.252 8.797 8.797 0 0 0-1.328-.188zm-2.715-1.607l-.34.487c.882-.149 1.783-.23 2.697-.205a9.934 9.934 0 0 0-1.815-.94c-.187.2-.367.422-.542.658zm-2.503-1.366c.316.418.612.894.883 1.423.182-.286.369-.566.567-.832l.247-.32-.397-.096c-.45-.101-.895-.172-1.332-.217l.032.042zm11.752 7.834a15.635 15.635 0 0 0-2.815-3.773.664.664 0 0 1-.136-.056l-.372-.192c.195.497.3 1.007.306 1.519.42.29.822.596 1.206.918a15.616 15.616 0 0 1 1.901 1.884l-.09-.3zm1.697 5.779a14.202 14.202 0 0 0-.639-1.586c-.477 1.07-1.256 2-2.268 2.763.524 1.691.824 3.403.895 5.085 1.009-.889 1.7-1.958 1.984-3.173.178-.92.34-1.894.028-3.089zm-12.41 16.945a15.855 15.855 0 0 0 4.04-1.405l-.173.042c-1.078.25-2.236.41-3.446.47a16.62 16.62 0 0 1-.421.893zm-8.673-.686a15.683 15.683 0 0 0 7.04.928c.216-.35.42-.719.609-1.11a25.121 25.121 0 0 1-5.138-.617 25.352 25.352 0 0 1-2.543-.712 8.698 8.698 0 0 0 .032 1.511zm-6.974-5.173a15.593 15.593 0 0 0 4.502 3.99l.088.05c.34.2.685.384 1.034.552-.014-.437.003-.905.042-1.398-2.054-.818-3.875-1.87-5.371-3.066l-.314-.257a.672.672 0 0 1 .019.129zm-3.111-11.363c-.162 1.38-.179 2.777.063 4.13.146.813.817 2.484 1.386 3.364.123-1.174.423-2.385.87-3.602-1.095-1.225-1.89-2.543-2.32-3.892zm3.925-8.643a15.4 15.4 0 0 0-1.447 1.868c.415-.404.856-.783 1.32-1.136.024-.214.06-.428.107-.642l.02-.09zm2.816-2.29c-.307.29-.576.605-.805.938-.221.32-.403.662-.542 1.021l.584-.324a18.137 18.137 0 0 1 3.903-1.496l.007-.04a3.907 3.907 0 0 1 .662-1.453c-.816.035-1.56.103-2.268.353-.65.229-1.047.53-1.541 1zm10.219-1.208l-.286-.406a6.197 6.197 0 0 0-.78-.865c-.572.04-1.114.13-1.617.264.9.244 1.795.584 2.683 1.007z" />
  </g>
</svg>
