<svg class="{{ include.class }}" viewBox="0 0 259 259" xmlns="http://www.w3.org/2000/svg">
  <g fill="none" fill-rule="evenodd">
    <path d="M129.53.427C58.321.427.6 58.15.6 129.357c0 71.205 57.722 128.93 128.928 128.93 71.206 0 128.93-57.723 128.93-128.929S200.737.427 129.53.427zm0 5.928c-67.933 0-123.003 55.07-123.003 123.002 0 67.932 55.07 123.003 123.001 123.003 67.932 0 123.003-55.07 123.003-123.002 0-67.932-55.069-123.003-123.002-123.003zm104.023 123.002c0-57.45-46.574-104.025-104.024-104.025-57.453 0-104.024 46.573-104.024 104.025 0 57.45 46.571 104.025 104.023 104.025 57.45 0 104.025-46.575 104.025-104.024v-.001zM129.53 3.226C59.868 3.226 3.4 59.696 3.4 129.356c0 69.661 56.469 126.132 126.129 126.132s126.131-56.47 126.131-126.13S199.19 3.226 129.53 3.226zm0 25.31c-55.682 0-100.822 45.14-100.822 100.82 0 55.682 45.14 100.824 100.821 100.824s100.823-45.14 100.823-100.822c0-55.683-45.14-100.823-100.822-100.823z" fill-opacity=".5" fill="#000"/>
    <path d="M216.434 194.845l1.503 2.649c-.604.185-1.1.385-1.48.601-.383.216-.683.461-.902.74-.152.192-.237.377-.25.546a.432.432 0 0 0 .169.404c.22.172.604.025 1.16-.443l.424-.35c.61-.48 1.22-.73 1.835-.754.614-.025 1.194.177 1.742.608.851.668 1.304 1.516 1.358 2.543.055 1.03-.304 2.039-1.081 3.025a6.383 6.383 0 0 1-1.231 1.199c-.465.349-.994.65-1.587.906l-1.394-2.493c.42-.115.788-.267 1.112-.46a2.84 2.84 0 0 0 .789-.676c.156-.2.243-.378.261-.537a.398.398 0 0 0-.152-.383c-.223-.174-.728.067-1.518.72-.127.104-.224.186-.293.243-.551.445-1.138.68-1.763.696-.626.017-1.205-.185-1.743-.608-.876-.688-1.343-1.565-1.401-2.635-.058-1.07.313-2.11 1.109-3.122.407-.52.89-.98 1.445-1.384a9.024 9.024 0 0 1 1.888-1.035zm5.592-9.304l6.122 8.759-2.333 3.282-10.245-2.966 2.256-3.17 1.219.471 1.58-2.223-.851-.987 2.252-3.166zm.201 6.03l-.872 1.23 1.108.407c.558.213.98.387 1.268.522.284.136.543.277.775.425l.036-.051a6.621 6.621 0 0 1-.655-.592 16.16 16.16 0 0 1-.91-1.027l-.75-.913zm4.294-14.335l8.726 5.016-1.767 3.076-3.719-2.137 2.574 4.128-2.042 3.551-2.783-5.106-6.154.454 2.18-3.792 4.863-.017-3.647-2.098 1.769-3.075zm4.573-8.39l2.093 2.213c-.543.325-.976.636-1.294.937-.32.302-.552.61-.698.933-.102.226-.14.425-.112.592a.43.43 0 0 0 .26.351c.255.115.593-.12 1.02-.708.14-.19.25-.335.328-.44.477-.612 1.012-1 1.601-1.173.592-.17 1.203-.113 1.838.174.986.446 1.628 1.162 1.927 2.147.3.985.191 2.05-.326 3.194a6.412 6.412 0 0 1-.909 1.46 7.79 7.79 0 0 1-1.324 1.258l-1.95-2.087c.38-.211.702-.448.97-.712.266-.264.468-.545.604-.846.104-.23.145-.426.125-.585a.396.396 0 0 0-.239-.334c-.257-.116-.691.239-1.301 1.064-.1.13-.174.232-.227.304-.429.565-.943.933-1.545 1.098-.604.165-1.216.107-1.838-.174-1.016-.46-1.678-1.199-1.99-2.223-.313-1.026-.202-2.122.33-3.296a7.193 7.193 0 0 1 1.072-1.69 8.998 8.998 0 0 1 1.585-1.457zm6.809-8.574l5.172 1.75-1.16 3.428-5.199-1.759c-.601-.204-1.043-.273-1.32-.206-.276.066-.472.272-.591.62-.115.343-.08.626.104.853.185.229.571.44 1.163.64l5.199 1.76-1.16 3.427-5.172-1.75c-.679-.228-1.222-.463-1.63-.699-.407-.237-.725-.504-.956-.799a3.944 3.944 0 0 1-.838-2.026c-.093-.767.003-1.574.29-2.421.287-.851.702-1.553 1.242-2.106a3.945 3.945 0 0 1 1.896-1.103c.357-.092.765-.107 1.228-.048.463.06 1.041.206 1.732.439zm-1.77-12.775l9.002 5.764-.906 3.923-10.601 1.166.876-3.792 1.307-.027.613-2.661-1.165-.586.875-3.787zm2.488 5.5l-.34 1.467 1.181-.045a19.552 19.552 0 0 1 1.372 0c.313.016.608.05.878.097l.014-.06a6.594 6.594 0 0 1-.831-.299 16.548 16.548 0 0 1-1.233-.602l-1.04-.558zm-2.045-9.782l9.986 1.268-.463 3.646-9.986-1.268.463-3.646zm.773-8.283l10.038.763-.275 3.609-6.78-.515-.267 3.508-3.257-.247.541-7.118zm.212-8.274l10.062.254-.169 6.73-2.731-.068.08-3.184-.97-.024-.073 2.888-2.577-.066.073-2.888-1.055-.027-.084 3.266-2.73-.07.174-6.811zm-.421-5.62l10.038-.764.278 3.665-10.038.763-.278-3.665zm-.445-4.594l3.902-.94c.3-.067.601-.132.899-.197.3-.067.6-.126.902-.183a11.668 11.668 0 0 1-.932-.06c-.33-.033-.685-.083-1.062-.146l-3.986-.657-.272-2.133 3.696-1.633c.349-.16.68-.297.992-.413.311-.113.607-.207.888-.286-.313.02-.621.033-.924.048-.303.013-.61.024-.915.036l-4.014.065-.446-3.518 10.202.436.471 3.703-2.379 1.021c-.074.033-.186.083-.334.147-1.006.433-1.839.725-2.502.88l.006.062c.432 0 .891.024 1.383.072.49.05 1.046.127 1.666.233l2.523.435.469 3.697-9.787 2.85-.446-3.52zm-1.248-14.584c.44-.103.86-.004 1.262.291.396.296.66.71.783 1.242.122.531.067 1.018-.16 1.463-.23.443-.564.716-1.005.818-.442.101-.862.003-1.263-.293-.398-.295-.66-.71-.783-1.246-.124-.537-.071-1.024.158-1.465.23-.438.565-.708 1.008-.81zm-4.457-9.476l9.536-3.225 1.137 3.36-4.064 1.376 4.8.799 1.312 3.881-5.67-1.29-3.73 4.916-1.404-4.146 3.206-3.659-3.986 1.349-1.137-3.361zm-4.248-10.059l4.027-1.819 3.445-5.153.997 2.208-1.824 2.401a4.273 4.273 0 0 1-.368.407c-.154.151-.335.316-.542.499a6.307 6.307 0 0 1 1.302-.073l2.99.21.998 2.207-6.145-.817-4.026 1.818-.854-1.888zm-4.82-8.844l8.392-4.824.905 1.573c.467.812.777 1.424.931 1.837.152.413.234.798.248 1.156a2.336 2.336 0 0 1-.306 1.179c-.204.355-.5.642-.885.863-.498.286-.981.368-1.451.25-.47-.126-.921-.448-1.357-.976.29.734.364 1.371.224 1.913-.142.542-.496.974-1.06 1.298a2.563 2.563 0 0 1-1.303.353 2.377 2.377 0 0 1-1.265-.363 4.063 4.063 0 0 1-.986-.882c-.311-.375-.745-1.043-1.299-2.005l-.105-.184-.683-1.188zm6.067-1.099l.23.402c.312.542.61.88.891 1.019.283.137.605.102.964-.104.351-.203.54-.454.566-.755.023-.304-.117-.721-.429-1.261l-.25-.435-1.972 1.134zm-3.638 2.093l.405.703c.258.45.555.737.885.855.332.12.686.07 1.062-.147.357-.204.563-.477.614-.814.056-.34-.043-.727-.294-1.165l-.42-.729-2.252 1.297zm-9.34-11.166l7.887-5.61 3.303 4.644-1.423 1.012-2.103-2.957-1.621 1.154 2.102 2.957-1.435 1.02-2.102-2.957-1.975 1.404 2.104 2.957-1.435 1.02-3.303-4.644zm-4.316-5.1l7.316-6.338 1.357 1.565-5.987 5.187 2.164 2.497-1.33 1.152-3.52-4.062zm3.925-6.394a4.32 4.32 0 0 0-.296-1.5 3.844 3.844 0 0 0-.787-1.204c-.712-.747-1.504-1.13-2.373-1.15-.87-.015-1.68.334-2.433 1.052-.738.702-1.123 1.464-1.164 2.289-.041.824.28 1.592.958 2.302.388.407.814.718 1.283.937.466.219.975.348 1.53.385l-1.547 1.456c-.49-.14-.949-.34-1.377-.6a5.967 5.967 0 0 1-1.19-.97c-1.064-1.117-1.591-2.364-1.58-3.741.011-1.378.552-2.578 1.62-3.596 1.065-1.015 2.286-1.493 3.662-1.436 1.377.056 2.602.65 3.683 1.783.362.38.671.783.93 1.213.257.429.467.895.63 1.399l-1.549 1.381zm-15.267-4.772l2.891-3.339.97-6.122 1.832 1.586-.65 2.945a4.261 4.261 0 0 1-.166.523c-.076.202-.17.43-.282.682a6.303 6.303 0 0 1 1.151-.613l2.803-1.062 1.83 1.586-5.922 1.832-2.893 3.339-1.564-1.357zm1.203-8.415a4.341 4.341 0 0 0-.577-1.419 3.82 3.82 0 0 0-1-1.033c-.841-.598-1.692-.822-2.549-.676-.857.15-1.588.646-2.19 1.494-.59.83-.825 1.65-.708 2.467.117.818.578 1.51 1.379 2.08.457.324.936.55 1.435.675a4.293 4.293 0 0 0 1.577.089l-1.241 1.721a5.506 5.506 0 0 1-1.467-.327 5.926 5.926 0 0 1-1.352-.726c-1.258-.895-2.012-2.018-2.26-3.373-.254-1.356.05-2.635.905-3.838.853-1.199 1.961-1.9 3.323-2.106 1.363-.207 2.68.145 3.955 1.05a6.97 6.97 0 0 1 1.144 1.016c.333.373.628.79.883 1.255l-1.257 1.65zm-12.67-6.676l.263.168c.702.451 1.217.671 1.543.662.324-.008.608-.205.853-.586.256-.402.318-.765.182-1.09-.131-.323-.535-.7-1.205-1.129l-.262-.168-1.373 2.143zm1.154 7.333l-2.01-1.288.3-5.177-2.44 3.806-1.743-1.12 5.223-8.147 2.497 1.599c.99.634 1.608 1.301 1.854 2.004.247.698.123 1.435-.372 2.208-.36.56-.837.93-1.426 1.112a2.337 2.337 0 0 1-1.754-.141l-.129 5.144zm-11.327-8.32c.78.401 1.565.459 2.354.17.788-.285 1.394-.84 1.816-1.665.417-.817.513-1.635.284-2.455-.23-.819-.73-1.427-1.498-1.822-.781-.4-1.57-.454-2.37-.16-.797.29-1.407.846-1.827 1.665-.425.832-.524 1.65-.296 2.452.227.803.742 1.408 1.537 1.815zm6.063-.53a5.061 5.061 0 0 1-1.237 1.574 4.841 4.841 0 0 1-1.735.938c-.665.2-1.337.269-2.015.209a5.165 5.165 0 0 1-3.321-1.608 5.364 5.364 0 0 1-.993-1.48 4.945 4.945 0 0 1-.453-2.184c.02-.747.205-1.466.56-2.157a5.03 5.03 0 0 1 1.235-1.57 4.834 4.834 0 0 1 1.743-.938 5.176 5.176 0 0 1 2.002-.206 5.17 5.17 0 0 1 3.514 1.799c.447.52.78 1.101 1 1.745.22.646.304 1.3.25 1.963a5.03 5.03 0 0 1-.55 1.915zm-11.636-8.839l-2.907 7.368-1.927-.761 2.907-7.367-2.203-.87.644-1.637 6.336 2.499-.646 1.637-2.204-.869zm-12.423 2.46c.843.24 1.624.143 2.342-.294.717-.434 1.202-1.096 1.455-1.989.25-.882.184-1.703-.2-2.462-.386-.759-.995-1.258-1.827-1.493-.844-.24-1.628-.139-2.354.304-.726.441-1.215 1.104-1.466 1.991-.256.899-.194 1.72.188 2.463.38.743 1.002 1.236 1.862 1.48zm5.843-1.705c-.19.667-.49 1.26-.908 1.784a4.826 4.826 0 0 1-1.516 1.26 5.307 5.307 0 0 1-1.936.598 5.169 5.169 0 0 1-3.572-.927 5.38 5.38 0 0 1-1.262-1.257 4.955 4.955 0 0 1-.87-2.054 4.959 4.959 0 0 1 .127-2.225c.191-.67.492-1.263.904-1.782a4.852 4.852 0 0 1 1.527-1.26 5.228 5.228 0 0 1 1.922-.594 5.238 5.238 0 0 1 2.01.166c.65.183 1.246.489 1.787.913.542.422.981.928 1.324 1.515.34.591.552 1.216.629 1.877a5.052 5.052 0 0 1-.166 1.986zm-23.502-.412l3.151-9.271 2.135.38.832 5.94c.02.126.033.303.036.536.006.234.003.5-.01.797.086-.289.173-.545.258-.769.084-.225.156-.388.215-.49l2.867-5.263 2.102.375-.244 9.79-1.932-.345.33-5.873c.022-.435.045-.762.067-.982.022-.22.05-.423.082-.61.018-.1.031-.174.042-.224.01-.05.024-.093.036-.13-.132.36-.251.671-.36.931-.106.26-.195.458-.267.588l-3.108 5.733-1.144-.206-.897-6.447c-.006-.058-.018-.22-.03-.49a95.442 95.442 0 0 1-.045-1.163l-.049.28c-.08.443-.214.98-.406 1.61l-.012.022-1.718 5.625-1.931-.344zm-15.026-.608l.244-9.677 2.15.054 4.14 5.742c.12.16.25.388.39.68.14.293.284.637.435 1.032a8.235 8.235 0 0 1-.084-.854 14.337 14.337 0 0 1-.008-1.059l.138-5.414 1.976.05-.246 9.677-2.03-.051-4.258-5.85a4.086 4.086 0 0 1-.384-.681 13.73 13.73 0 0 1-.436-1.046c.04.28.069.561.082.845.015.285.018.645.007 1.076l-.14 5.526-1.976-.05zm-7.01-1.084c.875-.067 1.574-.428 2.097-1.085.523-.655.75-1.444.68-2.369-.069-.914-.416-1.662-1.04-2.241-.623-.58-1.367-.837-2.228-.772-.876.067-1.577.431-2.105 1.098-.53.665-.76 1.458-.689 2.376.07.932.412 1.681 1.026 2.245.614.567 1.368.815 2.26.748zm4.896-3.618a5.054 5.054 0 0 1-.236 1.987 4.826 4.826 0 0 1-.988 1.707 5.302 5.302 0 0 1-3.533 1.76 5.124 5.124 0 0 1-1.75-.168 5.391 5.391 0 0 1-1.618-.744 4.94 4.94 0 0 1-1.527-1.627 5.002 5.002 0 0 1-.65-2.132 5.045 5.045 0 0 1 .235-1.985 4.841 4.841 0 0 1 .999-1.71c.446-.506.98-.914 1.598-1.22a5.24 5.24 0 0 1 1.944-.54 5.152 5.152 0 0 1 1.992.241c.654.21 1.24.532 1.767.965.524.438.935.95 1.237 1.544.301.59.477 1.232.53 1.922zm-22.325 6.892l.831-1.53c.223.316.513.537.874.666.357.129.733.146 1.124.055.47-.108.818-.306 1.042-.593.223-.287.29-.62.203-.999-.104-.445-.664-.784-1.679-1.017-.328-.073-.59-.135-.781-.186-.923-.238-1.593-.526-2.004-.864-.413-.336-.685-.787-.815-1.354-.18-.779-.02-1.487.48-2.131.501-.641 1.242-1.076 2.225-1.303.57-.131 1.086-.146 1.548-.042a3.09 3.09 0 0 1 1.312.683l-.928 1.415a1.49 1.49 0 0 0-.705-.486 1.71 1.71 0 0 0-.891-.008c-.4.092-.698.265-.896.521a.985.985 0 0 0-.188.862c.116.5.705.842 1.769 1.03.212.039.375.068.489.092.881.18 1.568.456 2.059.826.491.37.805.851.94 1.44.204.885.066 1.662-.418 2.327-.48.664-1.23 1.116-2.249 1.35-.721.168-1.367.184-1.942.055-.57-.13-1.04-.4-1.4-.81zm-5.107 2.708L96.28 21.98l-4.588-4.167 2.33-.662 2.105 2.159c.103.108.22.248.348.422.128.176.264.379.415.612a6.388 6.388 0 0 1 .026-.668c.02-.212.051-.423.093-.631l.65-2.927 2.327-.66-1.714 5.956 1.207 4.25-1.993.565zm-11.992 4.443l-.124-10.358 2.202-.868L94.6 27.08l-2.19.864-1.486-1.625-3.489 1.375.127 2.162-2.068.816zm4.384-5.688l-2.157-2.511a5.634 5.634 0 0 1-.284-.4c-.13-.191-.277-.43-.447-.714.062.312.114.595.157.845.043.252.065.42.072.508l.161 3.258 2.498-.986zM77.42 34.756l-4.413-8.616 2.35-1.204c.926-.474 1.688-.783 2.287-.926a4.292 4.292 0 0 1 1.738-.073c.72.12 1.366.409 1.935.862.573.452 1.052 1.056 1.438 1.809.392.766.601 1.512.629 2.243a4.18 4.18 0 0 1-.457 2.08c-.248.484-.58.91-.996 1.281-.418.367-1.089.792-2.014 1.264l-.654.335-1.843.945zm1.047-2.5l1.025-.524c.964-.493 1.557-1.074 1.772-1.738.216-.667.08-1.475-.407-2.43-.487-.95-1.064-1.53-1.732-1.744-.665-.216-1.483-.077-2.447.417l-1.025.525 2.814 5.494zm-13.425 4.67c.603.849 1.177 1.421 1.717 1.717.541.297 1.016.3 1.426.008.42-.298.578-.749.473-1.35-.103-.602-.464-1.338-1.08-2.207-.611-.859-1.184-1.435-1.717-1.726-.531-.292-1.004-.292-1.418.003-.415.294-.573.748-.47 1.356.104.608.46 1.342 1.07 2.199zm4.188-2.989c.915 1.286 1.37 2.473 1.37 3.559.002 1.088-.455 1.956-1.367 2.605-.922.654-1.894.804-2.914.453-1.022-.352-1.994-1.177-2.915-2.474-.909-1.277-1.362-2.46-1.358-3.55 0-1.088.458-1.956 1.372-2.605.922-.658 1.891-.81 2.906-.46 1.015.353 1.983 1.176 2.906 2.472zm-8.16 7.825l-2.056-2.617a10.987 10.987 0 0 1-.445-.593 4.751 4.751 0 0 1-.247-.394c.072.226.133.466.181.713.05.248.088.5.112.752l.334 3.804 2.121-1.665zm1.978 2.56l-1.146-1.458-3.662 2.878-.552-.703-.68-8.404 1.394-1.095 4.041 5.142.799-.628.852 1.086-.798.629 1.147 1.458-1.395 1.095zM48.634 57.79l-7.006-6.68 1.485-1.557 7.034.787c.199.021.454.078.766.169.31.094.662.218 1.056.373a8.853 8.853 0 0 1-.688-.512 13.515 13.515 0 0 1-.79-.707l-3.92-3.737 1.364-1.43 7.006 6.68-1.4 1.47-7.195-.774c-.2-.02-.454-.077-.763-.171-.31-.093-.666-.221-1.068-.38.234.159.461.326.683.507.22.18.488.419.8.717l4 3.814-1.364 1.431zm-2.75 3.277l-7.316-6.338 1.357-1.566 7.316 6.338-1.357 1.566zm-8.546 12.084l-8.15-5.224 1.426-2.224c.56-.874 1.064-1.525 1.51-1.95a4.274 4.274 0 0 1 1.465-.938 4.155 4.155 0 0 1 2.107-.23c.72.103 1.44.384 2.15.84.725.464 1.282 1.004 1.674 1.622.391.619.61 1.294.653 2.027a4.362 4.362 0 0 1-.217 1.609c-.175.527-.543 1.23-1.104 2.106l-.396.618-1.118 1.744zm-.352-2.686l.622-.97c.584-.912.803-1.712.655-2.394-.148-.684-.672-1.315-1.575-1.894-.898-.576-1.69-.787-2.373-.637-.685.149-1.321.682-1.906 1.593l-.621.97 5.198 3.332zm-2.988 8.469l-8.392-4.825 1.033-1.796 6.866 3.947 1.647-2.864 1.526.878-2.68 4.66zm-7.71 3.243l.128-.284c.344-.761.488-1.302.432-1.623-.056-.32-.29-.572-.705-.759-.434-.196-.801-.204-1.104-.024-.3.179-.615.63-.942 1.358l-.129.282 2.32 1.05zm7.09-2.205l-.985 2.176-5.165.454 4.118 1.86-.854 1.89-8.82-3.99 1.221-2.701c.484-1.071 1.055-1.78 1.714-2.124.655-.346 1.402-.331 2.239.047.607.275 1.042.692 1.306 1.25.267.562.305 1.146.116 1.755l5.11-.617zm-6.94 12.279c.28-.83.223-1.615-.178-2.353-.398-.738-1.035-1.255-1.913-1.554-.87-.293-1.693-.266-2.47.08-.777.347-1.306.93-1.582 1.75-.281.831-.22 1.619.188 2.366.404.748 1.042 1.269 1.916 1.564.884.3 1.708.277 2.468-.067.762-.342 1.285-.939 1.572-1.786zm-1.413-5.92a5.077 5.077 0 0 1 1.737.994c.501.444.897.969 1.184 1.577a5.312 5.312 0 0 1 .237 3.94 5.137 5.137 0 0 1-.84 1.546 5.39 5.39 0 0 1-1.318 1.197 4.931 4.931 0 0 1-2.095.768c-.742.09-1.48.012-2.215-.237a5.042 5.042 0 0 1-1.735-.99 4.846 4.846 0 0 1-1.183-1.589 5.165 5.165 0 0 1-.497-1.95c-.041-.689.047-1.359.263-2a5.189 5.189 0 0 1 1-1.738 5.3 5.3 0 0 1 1.58-1.247 4.866 4.866 0 0 1 1.906-.536c.66-.045 1.32.043 1.976.265zm-9.844 15.385l5.44-.217c.346-.015.715-.018 1.105-.01.392.01.829.035 1.31.073-.39-.099-.768-.219-1.137-.355a9.669 9.669 0 0 1-1.1-.487l-4.832-2.406.46-1.99 8.861 4.645-.447 1.94-6.408.298c-.293.017-.586.02-.876.002a7.881 7.881 0 0 1-.892-.105c.313.096.607.199.88.308a7 7 0 0 1 .757.363l5.625 3.09-.449 1.94-10 .288.465-2.015 5.523-.034c.319 0 .656.02 1.016.056.36.04.75.095 1.166.169a21.196 21.196 0 0 1-1.97-.93l-.129-.063-4.826-2.576.458-1.984zm6.61 20.976l-9.654-.733.432-5.684 1.741.132-.275 3.619 1.984.15.275-3.619 1.757.134-.276 3.619 2.417.183.274-3.618 1.756.133-.432 5.684zm-.323 10.485l-9.678-.245.054-2.07 3.883.098.106-4.197-3.884-.1.054-2.07 9.676.245-.052 2.071-4.047-.103-.105 4.198 4.045.102-.052 2.07zm-7.509 4.317l7.898-.6.156 2.065-7.897.6.18 2.362-1.755.134-.517-6.79 1.757-.134.178 2.363zm10.705 17.542l-9.432 2.178-.594-2.572c-.234-1.013-.348-1.828-.34-2.444a4.273 4.273 0 0 1 .353-1.702 4.16 4.16 0 0 1 1.308-1.669c.578-.443 1.28-.761 2.104-.95.839-.195 1.614-.216 2.33-.064a4.176 4.176 0 0 1 1.906.95c.409.36.741.784.999 1.279.255.494.501 1.248.735 2.261l.165.716.466 2.017zm-2.168-1.624l-.258-1.123c-.244-1.055-.663-1.77-1.255-2.142-.593-.371-1.41-.438-2.455-.196-1.04.238-1.744.657-2.114 1.251-.372.594-.437 1.422-.192 2.476l.26 1.123 6.014-1.39zm5.407 12.435l-9.17 3.102-.688-2.037 3.963-5.864c.11-.167.28-.366.506-.6.226-.231.5-.487.82-.764-.255.14-.513.264-.774.374-.26.111-.593.235-.992.37l-5.13 1.736-.633-1.872 9.169-3.101.651 1.923-4.026 6.01c-.11.169-.279.368-.507.597-.226.231-.503.487-.832.77.25-.135.504-.258.767-.369.261-.111.597-.238 1.006-.377l5.237-1.77.633 1.872zm-8.238 6.062l5.492-2.483c1.196-.54 2.232-.629 3.107-.265.875.365 1.599 1.182 2.174 2.452.583 1.29.721 2.383.417 3.28-.305.899-1.056 1.618-2.251 2.158l-5.492 2.482-.848-1.874 5.196-2.348c.727-.33 1.201-.738 1.425-1.225.223-.49.188-1.05-.1-1.69-.291-.642-.695-1.046-1.214-1.208-.518-.161-1.138-.08-1.863.248l-5.196 2.348-.847-1.875zm14.032 10.523c-.438-.76-1.064-1.236-1.883-1.423-.817-.19-1.627-.054-2.43.408-.795.457-1.32 1.093-1.574 1.904-.254.812-.165 1.596.265 2.343.438.762 1.07 1.236 1.9 1.425.826.192 1.64.057 2.439-.402.81-.465 1.34-1.097 1.583-1.895.247-.797.145-1.585-.3-2.36zm-5.375-2.856a5.04 5.04 0 0 1 1.893-.645 4.817 4.817 0 0 1 1.967.156 5.31 5.31 0 0 1 1.805.922 5.179 5.179 0 0 1 1.91 3.158c.109.59.117 1.185.026 1.78a4.934 4.934 0 0 1-.807 2.079 4.985 4.985 0 0 1-1.645 1.505 5.066 5.066 0 0 1-1.892.646 4.853 4.853 0 0 1-1.972-.163 5.184 5.184 0 0 1-1.792-.917 5.223 5.223 0 0 1-1.325-1.522 5.15 5.15 0 0 1-.641-1.9 5.278 5.278 0 0 1 .108-2.01c.169-.66.454-1.255.86-1.782a5.02 5.02 0 0 1 1.505-1.307zm7.983 14.52l-.182-.254c-.484-.68-.88-1.078-1.184-1.19-.305-.114-.64-.039-1.01.225-.388.275-.58.59-.577.941.002.35.235.85.697 1.5l.18.252 2.076-1.473zm1.666-7.234l1.384 1.945-2.21 4.69 3.683-2.618 1.2 1.687-7.888 5.61-1.719-2.417c-.683-.957-1.006-1.805-.973-2.551.033-.74.422-1.377 1.17-1.908.543-.387 1.124-.552 1.738-.5a2.34 2.34 0 0 1 1.575.786l2.04-4.724zm10.666 14.247l-9.89 3.084-1.462-1.862 5.302-8.92 1.455 1.85-1.13 1.892 2.317 2.948 2.034-.74 1.374 1.748zm-6.706-2.573l-1.788 2.786c-.054.08-.155.212-.302.387a16.5 16.5 0 0 1-.556.633c.282-.15.539-.28.765-.392.23-.114.384-.185.467-.214l3.074-1.088-1.66-2.112zm163.387 13.995a1.862 1.862 0 0 1-.533-1.398c.017-.539.221-.995.614-1.368.39-.37.856-.548 1.394-.534.54.016.994.219 1.363.607.37.39.548.858.533 1.403a1.884 1.884 0 0 1-.607 1.373c-.392.373-.859.55-1.397.533a1.895 1.895 0 0 1-1.367-.616zm-6.568 7.16c-.085.19-.19.365-.316.522a2.842 2.842 0 0 1-.485.47c-.647.51-1.349.706-2.107.59-.754-.118-1.405-.52-1.946-1.208-.616-.78-.863-1.61-.739-2.478.122-.87.595-1.629 1.42-2.279.779-.612 1.59-.866 2.432-.763.843.106 1.572.549 2.188 1.331.362.462.652 1.048.869 1.762.219.716.366 1.56.44 2.532l.215 2.742-1.824 1.435-.147-4.656zm-1.09-2.703c-.291-.37-.63-.583-1.007-.636-.377-.052-.745.062-1.102.343-.346.273-.538.606-.577.997-.036.39.084.763.366 1.122.298.38.64.597 1.02.648.38.051.756-.07 1.133-.365.331-.262.512-.59.544-.982.031-.392-.094-.767-.377-1.127zm-4.84 11.45l-4.28-6.713-1.633 1.04-.189-1.806 2.592-1.653 5.154 8.082-1.643 1.05zm-10.482.712c.523.9 1.04 1.523 1.55 1.869.511.346.985.392 1.42.14.445-.258.644-.692.597-1.301-.048-.61-.339-1.376-.874-2.298-.529-.911-1.045-1.538-1.548-1.877-.503-.34-.973-.383-1.412-.128-.441.255-.64.692-.593 1.306.046.615.333 1.38.86 2.29zm4.446-2.589c.793 1.365 1.137 2.59 1.035 3.67-.099 1.084-.634 1.906-1.602 2.467-.978.567-1.958.627-2.942.181-.986-.444-1.877-1.355-2.675-2.731-.786-1.357-1.129-2.576-1.025-3.66.102-1.084.638-1.907 1.608-2.469.98-.569 1.957-.63 2.936-.188.98.444 1.868 1.353 2.665 2.73zm-6.293 7.018l.658 1.455-6.106 2.761 1.273-5.524c.177-.764.279-1.345.303-1.746.023-.404-.022-.728-.135-.977-.156-.346-.382-.57-.679-.673-.293-.103-.622-.074-.984.09-.336.153-.551.397-.64.736-.088.336-.04.713.15 1.13l.018.042-1.776.803-.068-.15c-.395-.875-.45-1.664-.165-2.37.284-.706.887-1.268 1.806-1.683.939-.425 1.766-.542 2.483-.348.717.193 1.249.676 1.598 1.446.392.868.293 2.456-.298 4.765l-.06.207-.353 1.38 2.975-1.344zm-15.296-.552l2.598 7.483-1.957.68-2.597-7.484-2.238.777-.577-1.663 6.433-2.232.576 1.662-2.238.777zm-9.372 9.787l.758-1.566c.237.304.538.512.904.623.363.112.739.112 1.126.002.464-.131.802-.345 1.012-.641.21-.299.26-.634.155-1.008-.123-.44-.7-.752-1.724-.937-.33-.058-.595-.108-.789-.15-.934-.193-1.616-.45-2.042-.768-.428-.314-.72-.753-.879-1.313-.216-.77-.089-1.485.38-2.152.47-.664 1.19-1.133 2.161-1.406.564-.159 1.078-.198 1.544-.115.464.084.913.289 1.344.62l-.861 1.456a1.504 1.504 0 0 0-.728-.452 1.703 1.703 0 0 0-.89.036c-.395.11-.684.297-.87.562a.986.986 0 0 0-.147.868c.138.495.742.81 1.815.949.214.027.378.049.493.068.89.139 1.59.38 2.097.728.507.347.843.812 1.006 1.393.246.875.143 1.657-.308 2.343-.449.686-1.177 1.174-2.183 1.456-.712.2-1.358.248-1.936.145a2.58 2.58 0 0 1-1.438-.741zm-3.234-8.003l1.084 5.928c.236 1.29.073 2.317-.492 3.078-.564.762-1.532 1.268-2.904 1.519-1.393.255-2.486.126-3.285-.385-.797-.514-1.314-1.416-1.55-2.706l-1.084-5.928 2.024-.372 1.025 5.61c.144.784.426 1.344.845 1.677.421.334.974.437 1.665.31.692-.126 1.182-.421 1.464-.886.282-.465.352-1.085.209-1.868l-1.026-5.608 2.025-.37zm-13.21 6.552l4.393-.334c.014.055.026.117.033.182.008.065.015.166.025.303.11 1.445-.211 2.649-.97 3.608-.757.96-1.791 1.49-3.1 1.589-1.497.114-2.769-.268-3.812-1.15-1.042-.883-1.621-2.062-1.732-3.533-.112-1.458.284-2.701 1.185-3.73.902-1.028 2.099-1.598 3.588-1.712a4.73 4.73 0 0 1 2.198.33c.68.28 1.303.726 1.866 1.345l-1.31 1.13c-.38-.404-.768-.684-1.164-.847-.399-.162-.848-.222-1.348-.183-.954.073-1.694.427-2.22 1.064-.527.636-.752 1.451-.677 2.444.075.977.42 1.742 1.04 2.3.62.556 1.392.799 2.314.728.678-.052 1.215-.252 1.613-.605.396-.353.577-.784.537-1.298l-.008-.107-2.322.177-.13-1.701zm-6.592-4l-.178 6.024c-.038 1.31-.412 2.282-1.124 2.909-.712.626-1.763.918-3.157.877-1.415-.042-2.458-.396-3.131-1.063-.674-.668-.99-1.659-.952-2.97l.18-6.024 2.056.061-.168 5.699c-.025.8.134 1.404.474 1.817.342.414.862.63 1.563.652.704.021 1.245-.166 1.617-.562.373-.395.572-.987.595-1.782l.168-5.699 2.057.06zm-19.712 8.615l4.411-9.372 2.359.179 2.99 9.937-2.346-.179-.63-2.112-3.739-.285-.83 2-2.215-.168zm6.428-3.204l-.846-3.201a5.372 5.372 0 0 1-.08-.483c-.032-.23-.06-.507-.09-.838-.08.308-.158.587-.229.829-.07.246-.124.408-.158.488l-1.275 3 2.678.205zm-20.825.09l2.192-9.43 2.096.487 2.897 6.459c.083.182.164.43.245.745.076.314.15.681.217 1.099.015-.29.046-.574.09-.854.042-.28.11-.629.206-1.039l1.226-5.274 1.926.447-2.192 9.429-1.979-.459-2.99-6.59a4.133 4.133 0 0 1-.24-.744 14.04 14.04 0 0 1-.216-1.112 9.047 9.047 0 0 1-.09.844c-.042.282-.112.635-.21 1.054l-1.251 5.385-1.927-.448zm-4.418-1.315l2.62-9.32 1.995.56-2.62 9.32-1.995-.56zm-4.908-10.18l-2.936 7.357-1.924-.768 2.935-7.355-2.2-.879.653-1.634 6.325 2.523-.653 1.635-2.2-.878zm-9.635-1.678l.278.141c.745.379 1.28.547 1.602.505.321-.041.584-.266.79-.67.215-.425.238-.791.072-1.102-.164-.308-.602-.642-1.312-1.003l-.279-.141-1.15 2.27zm1.882 7.181l-2.128-1.08-.22-5.18-2.047 4.03-1.847-.938 4.38-8.633 2.646 1.343c1.047.532 1.729 1.133 2.045 1.808.316.67.267 1.414-.149 2.233-.301.595-.738 1.01-1.307 1.25a2.342 2.342 0 0 1-1.76.036l.387 5.131zm-15.94-8.633l8.029-6.545 2.05 1.183-1.6 10.253-2.039-1.176.346-2.176-3.248-1.874-1.613 1.444-1.926-1.11zm7.18-.11l.622-3.252c.021-.095.067-.254.136-.471.07-.22.165-.483.281-.795-.204.245-.396.46-.564.65-.17.19-.288.313-.354.372l-2.447 2.155 2.326 1.34zm-4.92-8.086l-4.595 6.45-1.687-1.202 4.595-6.45-1.928-1.375 1.02-1.432 5.546 3.95-1.02 1.434-1.931-1.375zm-13.53-1.838l1.713-.31c-.106.37-.098.737.03 1.097.123.36.343.662.66.911.38.3.752.446 1.115.44.364-.006.665-.162.905-.468.283-.359.197-1.008-.257-1.945-.15-.301-.264-.543-.345-.725-.394-.869-.589-1.57-.582-2.103.002-.533.184-1.027.544-1.485.495-.627 1.147-.946 1.961-.96.815-.012 1.62.294 2.41.918.46.362.794.755 1.003 1.18.206.423.304.909.29 1.45l-1.683.164a1.496 1.496 0 0 0-.064-.855c-.102-.255-.286-.489-.552-.699-.323-.253-.644-.378-.969-.372a.989.989 0 0 0-.789.394c-.316.403-.215 1.077.304 2.025.106.188.184.333.237.439.411.8.628 1.508.646 2.122.02.615-.16 1.16-.534 1.634-.561.714-1.253 1.092-2.074 1.132-.819.042-1.642-.26-2.463-.907-.58-.457-1-.95-1.26-1.479-.256-.527-.338-1.06-.245-1.598zm-5.329-10.153c.375-.39.83-.59 1.37-.599a1.897 1.897 0 0 1 1.396.549c.389.37.59.827.602 1.365.012.54-.17 1.002-.54 1.391-.373.389-.83.59-1.376.601a1.89 1.89 0 0 1-1.401-.54 1.878 1.878 0 0 1-.6-1.37 1.911 1.911 0 0 1 .55-1.397zm33.245-8.21h2.137c2.01 0 3.482-.455 4.4-1.373.922-.919 1.383-2.368 1.383-4.36 0-1.983-.461-3.434-1.383-4.35-.918-.924-2.39-1.383-4.4-1.383h-2.137v11.467zm-3.848 3.243v-17.979h4.903c1.933 0 3.453.134 4.564.407 1.115.268 2.091.72 2.933 1.349a7.746 7.746 0 0 1 2.475 3.064c.56 1.232.84 2.636.84 4.207 0 1.599-.284 3.011-.86 4.243a7.763 7.763 0 0 1-2.513 3.051 8.107 8.107 0 0 1-2.733 1.273c-1.003.257-2.469.385-4.4.385h-5.209zm39.678-6.838l-2.014-5.81a9.645 9.645 0 0 1-.219-.884c-.092-.42-.184-.93-.284-1.536a63.822 63.822 0 0 1-.307 1.565c-.096.467-.172.77-.223.925l-1.94 5.74h4.987zm-11.449 6.838l6.843-17.979h4.396l6.94 17.98h-4.37l-1.462-3.823h-6.968l-1.25 3.822h-4.129zm36.626 0v-8.205l-6.085-9.774h4.5l2.667 4.924c.13.25.269.559.408.936.136.377.279.807.43 1.298a11.456 11.456 0 0 1 .871-2.26l2.646-4.898h4.496l-6.085 9.774v8.205h-3.848zm25.338-2.283l2.142-2.419a3.288 3.288 0 0 0 1.302 1.568c.595.38 1.265.571 2.01.571.897 0 1.612-.214 2.134-.638.525-.428.784-1.001.784-1.723 0-.85-.871-1.699-2.612-2.542-.56-.27-1.008-.492-1.334-.664-1.575-.818-2.662-1.619-3.267-2.4-.607-.782-.91-1.711-.91-2.794 0-1.482.589-2.697 1.761-3.653 1.173-.952 2.7-1.429 4.572-1.429 1.085 0 2.025.188 2.816.57.79.382 1.488.977 2.095 1.786l-2.274 2.17c-.268-.523-.627-.913-1.073-1.174-.443-.255-.981-.386-1.609-.386-.762 0-1.375.19-1.84.57a1.831 1.831 0 0 0-.701 1.48c0 .953.922 1.82 2.772 2.606.368.157.649.278.847.369 1.52.696 2.648 1.48 3.38 2.357.734.876 1.1 1.878 1.1 2.996 0 1.69-.574 3.035-1.73 4.036-1.146 1.003-2.692 1.505-4.633 1.505-1.374 0-2.552-.24-3.538-.713-.98-.473-1.714-1.156-2.194-2.05zM83.998 111.31v-9.086h2.58v1.423c.478-.592.987-1.024 1.533-1.307a3.937 3.937 0 0 1 1.821-.42c.703 0 1.295.12 1.772.358.48.237.855.597 1.134 1.084.136.253.234.54.29.856.061.32.09.817.09 1.496v5.596H90.58v-4.495c0-1.117-.13-1.857-.39-2.214-.259-.358-.704-.536-1.334-.536a2.23 2.23 0 0 0-1.005.226c-.304.153-.56.367-.762.645a2.062 2.062 0 0 0-.348.74c-.072.279-.107.703-.107 1.27v4.364h-2.637zm-5.315 0v-9.086h2.637v9.086h-2.637zm-.228-12.82c0-.421.154-.781.452-1.085a1.485 1.485 0 0 1 1.086-.456c.427 0 .79.15 1.097.45.307.3.457.664.457 1.091 0 .43-.15.793-.457 1.097-.308.303-.67.454-1.097.454-.42 0-.782-.154-1.086-.463a1.519 1.519 0 0 1-.452-1.088zm.178-6.099v-7.008h-1.267V83.32h1.267v-3.012h2.634v3.012h1.267v2.063h-1.267v7.008h-2.634zm5.53 0V78.055h2.575v5.1c0 .28-.008.566-.025.842-.018.28-.047.552-.086.818.544-.634 1.085-1.092 1.632-1.375a3.929 3.929 0 0 1 1.827-.424c.701 0 1.296.12 1.778.36.483.24.859.598 1.122 1.079.136.254.235.54.29.856.062.317.091.814.091 1.492V92.391h-2.633v-4.489c0-1.114-.13-1.852-.387-2.208-.26-.358-.706-.539-1.334-.539-.363 0-.697.075-1.003.228-.303.153-.559.365-.76.643-.162.216-.28.462-.348.74-.073.277-.108.7-.108 1.268v4.357h-2.632zm17.956-5.475c-.073-.573-.283-1.009-.626-1.303-.34-.292-.807-.437-1.4-.437-.588 0-1.063.145-1.416.437-.356.294-.58.73-.68 1.303h4.122zm2.602 1.592h-6.806c.103.652.339 1.143.711 1.464.37.323.871.487 1.506.487.48 0 .897-.092 1.245-.279.35-.183.64-.465.874-.839l2.121 1.061c-.492.793-1.093 1.383-1.794 1.77-.703.386-1.54.577-2.506.577-1.466 0-2.628-.44-3.487-1.312-.857-.875-1.284-2.05-1.284-3.531 0-1.425.45-2.595 1.344-3.514.897-.918 2.045-1.376 3.444-1.376 1.445 0 2.584.43 3.425 1.292.836.859 1.255 2.031 1.255 3.516 0 .082-.002.166-.01.264a9.414 9.414 0 0 1-.038.42zm15.178-10.2l2.087 7.631c.133.485.26 1.008.372 1.564.116.558.224 1.183.327 1.875.012-.585.059-1.156.13-1.724.073-.569.184-1.143.33-1.715l1.828-7.632h2.967l-3.68 14.069h-2.891l-2.52-8.975a10.68 10.68 0 0 1-.43-2.54c-.034.476-.084.925-.15 1.35-.069.422-.155.819-.263 1.19l-2.538 8.975h-2.894l-3.68-14.069h3.009l1.852 7.813c.104.448.187.934.253 1.456.06.519.112 1.091.142 1.703.123-.813.344-1.842.672-3.091l.048-.203 2.068-7.678h2.961zm24.39 7.064a7.305 7.305 0 0 1-.562 2.852 7.01 7.01 0 0 1-1.62 2.364 7.68 7.68 0 0 1-2.47 1.605 7.52 7.52 0 0 1-5.362.12 7.877 7.877 0 0 1-2.263-1.256 7.189 7.189 0 0 1-2.03-2.525 7.207 7.207 0 0 1-.708-3.16c0-1.013.188-1.962.559-2.85a7.062 7.062 0 0 1 1.631-2.368 7.573 7.573 0 0 1 2.454-1.593 7.603 7.603 0 0 1 2.876-.567 7.5 7.5 0 0 1 2.86.567c.926.376 1.74.908 2.454 1.593a7.072 7.072 0 0 1 1.62 2.373c.374.89.56 1.837.56 2.845zm-7.495 4.702c1.277 0 2.33-.447 3.158-1.34.83-.893 1.247-2.012 1.247-3.36 0-1.332-.42-2.45-1.26-3.36-.84-.907-1.89-1.365-3.145-1.365-1.276 0-2.331.452-3.17 1.362-.842.903-1.26 2.025-1.26 3.364 0 1.355.413 2.481 1.24 3.367.825.89 1.892 1.332 3.19 1.332zm20.2 2.302h-3.469l-3.692-6.569v6.569h-3.011V78.307h4.309c1.707 0 2.988.332 3.842.998.848.662 1.273 1.66 1.273 2.994 0 .968-.292 1.794-.873 2.48-.582.686-1.335 1.087-2.255 1.203l3.877 6.394zm-7.161-8.068h.452c1.213 0 2.018-.134 2.407-.4.39-.264.584-.726.584-1.386 0-.694-.21-1.185-.63-1.476-.415-.29-1.203-.436-2.36-.436h-.453v3.698zm8.914 8.068V78.307h3.008v11.511h4.8v2.558h-7.808zm12.713-2.538h1.671c1.575 0 2.725-.356 3.444-1.077.721-.718 1.082-1.852 1.082-3.41 0-1.549-.361-2.686-1.082-3.402-.719-.724-1.869-1.084-3.444-1.084h-1.671v8.973zm-3.012 2.538V78.307h3.838c1.512 0 2.7.106 3.57.32a6.24 6.24 0 0 1 2.296 1.055 6.042 6.042 0 0 1 1.934 2.397c.44.964.66 2.062.66 3.293 0 1.248-.224 2.354-.672 3.317a6.1 6.1 0 0 1-1.967 2.39 6.378 6.378 0 0 1-2.139.994c-.785.202-1.931.303-3.445.303h-4.075zm-2.172-20.37V55.52h4.497c1.772 0 3.167.122 4.186.373a7.315 7.315 0 0 1 2.69 1.236 7.11 7.11 0 0 1 2.267 2.81c.515 1.132.772 2.418.772 3.858 0 1.464-.262 2.76-.789 3.89a7.107 7.107 0 0 1-2.305 2.798 7.416 7.416 0 0 1-2.505 1.167c-.919.236-2.265.355-4.035.355H166.276zm3.528-2.975h1.961c1.844 0 3.194-.418 4.035-1.26.845-.843 1.267-2.172 1.267-3.998 0-1.817-.422-3.146-1.267-3.988-.841-.846-2.191-1.267-4.035-1.267h-1.96V69.03zm-22.76 2.975V55.52h3.664l7.298 9.596c.207.268.44.65.692 1.141.249.492.51 1.073.785 1.742a14.365 14.365 0 0 1-.182-1.453 22.92 22.92 0 0 1-.058-1.803v-9.223h3.367v16.487h-3.458l-7.503-9.777c-.208-.269-.437-.65-.683-1.141-.25-.492-.511-1.08-.789-1.765.08.478.142.953.177 1.438.04.486.058 1.095.058 1.83v9.415h-3.367zm-3.641-16.487v10.264c0 2.234-.589 3.905-1.769 5.008-1.18 1.104-2.954 1.653-5.33 1.653-2.411 0-4.203-.549-5.384-1.653-1.18-1.103-1.768-2.774-1.768-5.008V55.52h3.505v9.711c0 1.36.3 2.382.898 3.07.606.69 1.5 1.03 2.696 1.03 1.199 0 2.107-.345 2.724-1.037.616-.692.923-1.71.923-3.063v-9.711h3.505zm-25.934 13.79c1.495 0 2.727-.523 3.701-1.573.971-1.045 1.461-2.357 1.461-3.935 0-1.56-.494-2.875-1.478-3.94-.983-1.064-2.213-1.599-3.684-1.599-1.495 0-2.733.53-3.716 1.595-.986 1.061-1.477 2.376-1.477 3.944 0 1.592.484 2.91 1.453 3.947.969 1.041 2.218 1.56 3.74 1.56zm8.782-5.513c0 1.18-.22 2.295-.658 3.345a8.235 8.235 0 0 1-1.897 2.77 9.067 9.067 0 0 1-2.896 1.88 8.797 8.797 0 0 1-6.283.142 9.158 9.158 0 0 1-2.651-1.472 8.388 8.388 0 0 1-2.384-2.96 8.465 8.465 0 0 1-.826-3.705c0-1.186.22-2.297.654-3.339a8.199 8.199 0 0 1 1.915-2.774 8.84 8.84 0 0 1 2.872-1.87 8.932 8.932 0 0 1 3.372-.662c1.148 0 2.267.221 3.351.662a9.025 9.025 0 0 1 2.876 1.87 8.29 8.29 0 0 1 1.9 2.782 8.578 8.578 0 0 1 .655 3.331zm-27.326-1.245h.532c1.421 0 2.363-.157 2.82-.467.458-.313.682-.855.682-1.627 0-.811-.244-1.387-.735-1.727-.49-.344-1.412-.513-2.767-.513h-.532v4.334zm8.393 9.455h-4.064l-4.329-7.7v7.7h-3.53V55.52h5.053c2.001 0 3.501.388 4.5 1.169.995.777 1.494 1.942 1.494 3.508 0 1.133-.34 2.1-1.02 2.904-.685.809-1.565 1.278-2.645 1.413l4.541 7.493zm-30.318 0l6.276-16.487h4.032l6.363 16.487h-4.007l-1.341-3.505h-6.388l-1.149 3.505H77zm10.5-6.27l-1.849-5.33a10.42 10.42 0 0 1-.2-.81c-.084-.383-.17-.853-.26-1.41a53.662 53.662 0 0 1-.281 1.437c-.09.427-.158.708-.204.851l-1.778 5.262H87.5z" fill="#FFF"/>
    <path d="M113.27 99.61v60.379h7.831v10.156h-7.83v8.815h-10.793v-8.815H63.465L113.27 99.61zM83.056 159.99h19.423v-26.82l-19.423 26.82zm64.724-58.77c9.418-2.432 19.778-1.312 28.827 3.943l.217.122c9.026 5.327 15.065 13.83 17.524 23.24 2.451 9.381 1.345 19.693-3.886 28.69l-.093.17c-5.323 9.028-13.866 15.064-23.343 17.507-9.417 2.43-19.777 1.304-28.816-3.954l-.194-.108c-9.047-5.326-15.08-13.816-17.538-23.224-2.455-9.414-1.338-19.756 3.929-28.766l.058-.09c5.32-9.042 13.849-15.087 23.315-17.53zm.333 8.384a46.429 46.429 0 0 1 8.523-.725 28.527 28.527 0 0 0-5.172-1.473l-1.318-.2c-.889.686-1.583 1.492-2.033 2.398zm1.01 6.909c2.648-1.853 5.424-3.462 8.27-4.753-3.347-.08-6.66.213-9.836.87.123 1.303.671 2.625 1.567 3.883zm-11.418 10.404a62.091 62.091 0 0 1 9.113-8.704c-1.114-1.552-1.827-3.214-2.065-4.898a36.422 36.422 0 0 0-7.11 2.82 32.576 32.576 0 0 0-3.33 2.02c.009 2.957 1.227 5.972 3.392 8.762zm-3.132 3.986l1.278-1.714c-2.286-2.793-3.764-5.83-4.237-8.915-2.637 2.334-4.807 5.133-6.33 8.374-.092 3.651 1.446 7.392 4.244 10.864 1.336-2.919 3.041-5.82 5.045-8.609zm8.6 29.643c.427-2.272.985-4.662 1.619-7.074-5.658-2.256-10.535-5.282-14.265-8.724-1.025 3.134-1.53 6.21-1.401 9.088a31.871 31.871 0 0 0 3.335 3.063c2.89 2.31 6.38 4.361 10.32 6l.393-2.353zm3.51-13.747c.798-2.658 1.689-5.349 2.645-8.026-4.588-1.928-8.525-4.508-11.515-7.443l-.915 1.241c-2.162 3.01-3.956 6.142-5.274 9.26l.306.3c3.478 3.367 8.142 6.343 13.616 8.562l1.136-3.894zm9.605-24.827c1.43-3.017 2.89-5.871 4.337-8.473-3.297 1.287-6.522 3.045-9.571 5.151 1.413 1.281 3.188 2.421 5.234 3.322zm-2.784 6.172l1.579-3.575c-2.518-1.122-4.692-2.566-6.384-4.199a59.166 59.166 0 0 0-9.082 8.715c2.737 2.748 6.396 5.177 10.698 7a191.4 191.4 0 0 1 3.19-7.94zm9.782 38.778c1.066-2.824 1.88-5.982 2.473-9.337-3.87-.018-7.942-.461-12.077-1.382l-.15-.033a58.258 58.258 0 0 1-6.04-1.703c-.59 2.265-1.11 4.499-1.504 6.605l-.01.044c-.18.973-.336 1.921-.456 2.83 1.89.663 3.862 1.23 5.91 1.69 4.076.917 8.08 1.33 11.854 1.286zm2.391-42.834c-.588-3.671-1.345-7.001-2.22-9.784a142.654 142.654 0 0 0-4.474 8.674c.615.19 1.247.358 1.895.502l.053.013c1.623.362 3.218.555 4.746.595zm1.343 15.41a114.14 114.14 0 0 0-.924-12.544 27.532 27.532 0 0 1-5.783-.666l-.06-.014a28.926 28.926 0 0 1-2.49-.678l-1.619 3.67a188.406 188.406 0 0 0-3.154 7.846c1.469.506 3 .947 4.582 1.306l.228.045a42.077 42.077 0 0 0 9.22 1.034zm-.119 7.701c.084-1.609.128-3.224.14-4.842-3.162.006-6.48-.348-9.847-1.093l-.264-.057a46.735 46.735 0 0 1-4.925-1.408 161.195 161.195 0 0 0-2.575 7.817l-1.19 4.086a56.154 56.154 0 0 0 5.914 1.676l.146.032c4.095.91 8.11 1.332 11.906 1.315a89.9 89.9 0 0 0 .695-7.526zm17.342 3.152c.04-3.798-.513-7.71-1.635-11.587a25.39 25.39 0 0 1-3.629 1.635c-2.722.985-5.79 1.62-9.075 1.855-.01 1.7-.056 3.4-.145 5.091a92.495 92.495 0 0 1-.655 7.28c3.616-.234 6.981-.882 9.963-1.9 1.897-.648 3.636-1.445 5.176-2.374zm-1.955 11.01a31.731 31.731 0 0 0 1.76-7.63 30.594 30.594 0 0 1-4.061 1.707c-3.38 1.15-7.21 1.863-11.315 2.08-.56 3.28-1.318 6.408-2.304 9.264a39.28 39.28 0 0 0 5.765-.876c4.035-.932 7.519-2.483 10.155-4.546zm-8.2-38.936a51.195 51.195 0 0 0-7.496-7.63c.767 2.698 1.433 5.81 1.962 9.183 1.443-.154 2.79-.455 4-.89a12.531 12.531 0 0 0 1.534-.663zm7.618 13.56c-1.402-3.875-3.372-7.673-5.885-11.245-.713.398-1.484.744-2.303 1.04a20.096 20.096 0 0 1-4.562 1.028c.515 3.983.84 8.25.925 12.583 2.945-.23 5.689-.803 8.121-1.682a22.234 22.234 0 0 0 3.704-1.725zm-3.568-18.112c-2.421-1.514-5.095-2.784-7.994-3.797a53.81 53.81 0 0 1 6.286 6.696c.852-.84 1.442-1.813 1.708-2.899zm3.827 2.769l-1.363-1.079c-.51 1.332-1.348 2.514-2.45 3.518a50.75 50.75 0 0 1 5.975 11.19c2.026-1.732 3.426-3.837 3.985-6.251l.076-.351a30.937 30.937 0 0 0-6.223-7.027zm-8.51-9.378a23.606 23.606 0 0 0-2.728-.017 44.06 44.06 0 0 1 7.193 3.17c-.324-.93-.851-1.856-1.553-2.742a19.306 19.306 0 0 0-2.912-.411zm-5.945-3.521l-.745 1.067c1.93-.326 3.905-.504 5.908-.45a21.772 21.772 0 0 0-3.977-2.057c-.41.437-.803.923-1.186 1.44zm-5.483-2.993c.693.917 1.34 1.959 1.934 3.117.399-.626.808-1.238 1.241-1.822l.542-.702-.87-.21c-.986-.22-1.96-.376-2.918-.475l.071.092zm25.742 17.16a34.26 34.26 0 0 0-6.167-8.265 1.453 1.453 0 0 1-.298-.122l-.815-.419a9.379 9.379 0 0 1 .67 3.325 36.742 36.742 0 0 1 2.642 2.011 34.245 34.245 0 0 1 4.165 4.127l-.197-.657zm3.717 12.658a31.105 31.105 0 0 0-1.4-3.475c-1.046 2.346-2.75 4.38-4.969 6.053 1.148 3.704 1.806 7.454 1.96 11.139 2.21-1.948 3.725-4.29 4.346-6.951.39-2.014.746-4.149.063-6.766zM164.3 171.682a34.71 34.71 0 0 0 8.85-3.077l-.378.093c-2.362.547-4.898.895-7.549 1.028a36.596 36.596 0 0 1-.923 1.956zm-18.996-1.501a34.342 34.342 0 0 0 15.42 2.031c.473-.764.918-1.574 1.334-2.431-3.616-.049-7.408-.489-11.254-1.35a55.645 55.645 0 0 1-5.57-1.56c-.068 1.215-.05 2.329.07 3.31zM130.03 158.85a34.159 34.159 0 0 0 9.86 8.74l.195.11c.745.435 1.5.839 2.264 1.208-.031-.958.005-1.983.092-3.063-4.5-1.792-8.487-4.096-11.765-6.716l-.687-.563c.025.094.035.19.04.284zm-6.814-24.89c-.356 3.025-.391 6.084.139 9.047.318 1.78 1.788 5.44 3.034 7.367.27-2.571.927-5.223 1.908-7.888-2.4-2.683-4.143-5.571-5.08-8.526zm8.597-18.932a33.772 33.772 0 0 0-3.17 4.093 31.652 31.652 0 0 1 2.892-2.488c.053-.469.131-.938.234-1.406l.044-.199zm6.167-5.016a12.756 12.756 0 0 0-1.761 2.056c-.486.7-.884 1.45-1.19 2.236l1.281-.709c2.657-1.4 5.533-2.496 8.548-3.278l.016-.087a8.56 8.56 0 0 1 1.451-3.184c-1.79.08-3.417.226-4.97.774-1.422.502-2.293 1.16-3.375 2.192zm22.384-2.646l-.625-.888a13.588 13.588 0 0 0-1.71-1.894c-1.252.088-2.44.285-3.542.578a34.891 34.891 0 0 1 5.877 2.204z" fill="red"/>
    <path d="M82.305 199.843h2.137c2.01 0 3.482-.456 4.4-1.374.922-.919 1.383-2.368 1.383-4.36 0-1.983-.461-3.434-1.383-4.35-.918-.924-2.39-1.383-4.4-1.383h-2.137v11.467zm-3.848 3.242v-17.979h4.903c1.933 0 3.453.134 4.564.407 1.115.268 2.091.72 2.933 1.349a7.746 7.746 0 0 1 2.475 3.064c.56 1.232.84 2.636.84 4.207 0 1.599-.284 3.011-.86 4.243a7.763 7.763 0 0 1-2.513 3.051 8.107 8.107 0 0 1-2.733 1.273c-1.003.257-2.469.385-4.4.385h-5.209zm39.678-6.838l-2.014-5.81a9.645 9.645 0 0 1-.219-.884c-.092-.42-.184-.93-.284-1.536a63.822 63.822 0 0 1-.307 1.565c-.096.467-.172.77-.223.925l-1.94 5.74h4.987zm-11.449 6.838l6.843-17.979h4.396l6.94 17.98h-4.37l-1.462-3.823h-6.968l-1.25 3.822h-4.129zm36.626 0v-8.205l-6.085-9.774h4.5l2.667 4.924c.13.25.269.559.408.936.136.377.279.807.43 1.298a11.456 11.456 0 0 1 .871-2.26l2.646-4.898h4.496l-6.085 9.774v8.205h-3.848zm25.338-2.283l2.142-2.419a3.288 3.288 0 0 0 1.302 1.568c.595.38 1.265.571 2.01.571.897 0 1.612-.214 2.134-.638.525-.428.784-1.001.784-1.723 0-.85-.871-1.699-2.612-2.542-.56-.27-1.008-.492-1.334-.664-1.575-.818-2.662-1.619-3.267-2.4-.607-.782-.91-1.711-.91-2.794 0-1.482.589-2.697 1.761-3.653 1.173-.952 2.7-1.429 4.572-1.429 1.085 0 2.025.188 2.816.57.79.382 1.488.977 2.095 1.786l-2.274 2.17c-.268-.523-.627-.913-1.073-1.174-.443-.255-.981-.386-1.609-.386-.762 0-1.375.19-1.84.57a1.831 1.831 0 0 0-.701 1.48c0 .953.922 1.82 2.772 2.606.368.157.649.278.847.369 1.52.696 2.648 1.48 3.38 2.357.734.876 1.1 1.878 1.1 2.996 0 1.69-.574 3.035-1.73 4.036-1.146 1.003-2.692 1.505-4.633 1.505-1.374 0-2.552-.24-3.538-.713-.98-.473-1.714-1.156-2.194-2.05zM83.998 111.31v-9.086h2.58v1.423c.478-.592.987-1.024 1.533-1.307a3.937 3.937 0 0 1 1.821-.42c.703 0 1.295.12 1.772.358.48.237.855.597 1.134 1.084.136.253.234.54.29.856.061.32.09.817.09 1.496v5.596H90.58v-4.495c0-1.117-.13-1.857-.39-2.214-.259-.358-.704-.536-1.334-.536a2.23 2.23 0 0 0-1.005.226c-.304.153-.56.367-.762.645a2.062 2.062 0 0 0-.348.74c-.072.279-.107.703-.107 1.27v4.364h-2.637zm-5.315 0v-9.086h2.637v9.086h-2.637zm-.228-12.82c0-.421.154-.781.452-1.085a1.485 1.485 0 0 1 1.086-.456c.427 0 .79.15 1.097.45.307.3.457.664.457 1.091 0 .43-.15.793-.457 1.097-.308.303-.67.454-1.097.454-.42 0-.782-.154-1.086-.463a1.519 1.519 0 0 1-.452-1.088zm.178-6.099v-7.008h-1.267V83.32h1.267v-3.012h2.634v3.012h1.267v2.063h-1.267v7.008h-2.634zm5.53 0V78.055h2.575v5.1c0 .28-.008.566-.025.842-.018.28-.047.552-.086.818.544-.634 1.085-1.092 1.632-1.375a3.929 3.929 0 0 1 1.827-.424c.701 0 1.296.12 1.778.36.483.24.859.598 1.122 1.079.136.254.235.54.29.856.062.317.091.814.091 1.492V92.391h-2.633v-4.489c0-1.114-.13-1.852-.387-2.208-.26-.358-.706-.539-1.334-.539-.363 0-.697.075-1.003.228-.303.153-.559.365-.76.643-.162.216-.28.462-.348.74-.073.277-.108.7-.108 1.268v4.357h-2.632zm17.956-5.475c-.073-.573-.283-1.009-.626-1.303-.34-.292-.807-.437-1.4-.437-.588 0-1.063.145-1.416.437-.356.294-.58.73-.68 1.303h4.122zm2.602 1.592h-6.806c.103.652.339 1.143.711 1.464.37.323.871.487 1.506.487.48 0 .897-.092 1.245-.279.35-.183.64-.465.874-.839l2.121 1.061c-.492.793-1.093 1.383-1.794 1.77-.703.386-1.54.577-2.506.577-1.466 0-2.628-.44-3.487-1.312-.857-.875-1.284-2.05-1.284-3.531 0-1.425.45-2.595 1.344-3.514.897-.918 2.045-1.376 3.444-1.376 1.445 0 2.584.43 3.425 1.292.836.859 1.255 2.031 1.255 3.516 0 .082-.002.166-.01.264a9.414 9.414 0 0 1-.038.42zm15.178-10.2l2.087 7.631c.133.485.26 1.008.372 1.564.116.558.224 1.183.327 1.875.012-.585.059-1.156.13-1.724.073-.569.184-1.143.33-1.715l1.828-7.632h2.967l-3.68 14.069h-2.891l-2.52-8.975a10.68 10.68 0 0 1-.43-2.54c-.034.476-.084.925-.15 1.35-.069.422-.155.819-.263 1.19l-2.538 8.975h-2.894l-3.68-14.069h3.009l1.852 7.813c.104.448.187.934.253 1.456.06.519.112 1.091.142 1.703.123-.813.344-1.842.672-3.091l.048-.203 2.068-7.678h2.961zm24.39 7.064a7.305 7.305 0 0 1-.562 2.852 7.01 7.01 0 0 1-1.62 2.364 7.68 7.68 0 0 1-2.47 1.605 7.52 7.52 0 0 1-5.362.12 7.877 7.877 0 0 1-2.263-1.256 7.189 7.189 0 0 1-2.03-2.525 7.207 7.207 0 0 1-.708-3.16c0-1.013.188-1.962.559-2.85a7.062 7.062 0 0 1 1.631-2.368 7.573 7.573 0 0 1 2.454-1.593 7.603 7.603 0 0 1 2.876-.567 7.5 7.5 0 0 1 2.86.567c.926.376 1.74.908 2.454 1.593a7.072 7.072 0 0 1 1.62 2.373c.374.89.56 1.837.56 2.845zm-7.495 4.702c1.277 0 2.33-.447 3.158-1.34.83-.893 1.247-2.012 1.247-3.36 0-1.332-.42-2.45-1.26-3.36-.84-.907-1.89-1.365-3.145-1.365-1.276 0-2.331.452-3.17 1.362-.842.903-1.26 2.025-1.26 3.364 0 1.355.413 2.481 1.24 3.367.825.89 1.892 1.332 3.19 1.332zm20.2 2.302h-3.469l-3.692-6.569v6.569h-3.011V78.307h4.309c1.707 0 2.988.332 3.842.998.848.662 1.273 1.66 1.273 2.994 0 .968-.292 1.794-.873 2.48-.582.686-1.335 1.087-2.255 1.203l3.877 6.394zm-7.161-8.068h.452c1.213 0 2.018-.134 2.407-.4.39-.264.584-.726.584-1.386 0-.694-.21-1.185-.63-1.476-.415-.29-1.203-.436-2.36-.436h-.453v3.698zm8.914 8.068V78.307h3.008v11.511h4.8v2.558h-7.808zm12.713-2.538h1.671c1.575 0 2.725-.356 3.444-1.077.721-.718 1.082-1.852 1.082-3.41 0-1.549-.361-2.686-1.082-3.402-.719-.724-1.869-1.084-3.444-1.084h-1.671v8.973zm-3.012 2.538V78.307h3.838c1.512 0 2.7.106 3.57.32a6.24 6.24 0 0 1 2.296 1.055 6.042 6.042 0 0 1 1.934 2.397c.44.964.66 2.062.66 3.293 0 1.248-.224 2.354-.672 3.317a6.1 6.1 0 0 1-1.967 2.39 6.378 6.378 0 0 1-2.139.994c-.785.202-1.931.303-3.445.303h-4.075zm-2.172-20.37V55.52h4.497c1.772 0 3.167.122 4.186.373a7.315 7.315 0 0 1 2.69 1.236 7.11 7.11 0 0 1 2.267 2.81c.515 1.132.772 2.418.772 3.858 0 1.464-.262 2.76-.789 3.89a7.107 7.107 0 0 1-2.305 2.798 7.416 7.416 0 0 1-2.505 1.167c-.919.236-2.265.355-4.035.355H166.276zm3.528-2.975h1.961c1.844 0 3.194-.418 4.035-1.26.845-.843 1.267-2.172 1.267-3.998 0-1.817-.422-3.146-1.267-3.988-.841-.846-2.191-1.267-4.035-1.267h-1.96V69.03zm-22.76 2.975V55.52h3.664l7.298 9.596c.207.268.44.65.692 1.141.249.492.51 1.073.785 1.742a14.365 14.365 0 0 1-.182-1.453 22.92 22.92 0 0 1-.058-1.803v-9.223h3.367v16.487h-3.458l-7.503-9.777c-.208-.269-.437-.65-.683-1.141-.25-.492-.511-1.08-.789-1.765.08.478.142.953.177 1.438.04.486.058 1.095.058 1.83v9.415h-3.367zm-3.641-16.487v10.264c0 2.234-.589 3.905-1.769 5.008-1.18 1.104-2.954 1.653-5.33 1.653-2.411 0-4.203-.549-5.384-1.653-1.18-1.103-1.768-2.774-1.768-5.008V55.52h3.505v9.711c0 1.36.3 2.382.898 3.07.606.69 1.5 1.03 2.696 1.03 1.199 0 2.107-.345 2.724-1.037.616-.692.923-1.71.923-3.063v-9.711h3.505zm-25.934 13.79c1.495 0 2.727-.523 3.701-1.573.971-1.045 1.461-2.357 1.461-3.935 0-1.56-.494-2.875-1.478-3.94-.983-1.064-2.213-1.599-3.684-1.599-1.495 0-2.733.53-3.716 1.595-.986 1.061-1.477 2.376-1.477 3.944 0 1.592.484 2.91 1.453 3.947.969 1.041 2.218 1.56 3.74 1.56zm8.782-5.513c0 1.18-.22 2.295-.658 3.345a8.235 8.235 0 0 1-1.897 2.77 9.067 9.067 0 0 1-2.896 1.88 8.797 8.797 0 0 1-6.283.142 9.158 9.158 0 0 1-2.651-1.472 8.388 8.388 0 0 1-2.384-2.96 8.465 8.465 0 0 1-.826-3.705c0-1.186.22-2.297.654-3.339a8.199 8.199 0 0 1 1.915-2.774 8.84 8.84 0 0 1 2.872-1.87 8.932 8.932 0 0 1 3.372-.662c1.148 0 2.267.221 3.351.662a9.025 9.025 0 0 1 2.876 1.87 8.29 8.29 0 0 1 1.9 2.782 8.578 8.578 0 0 1 .655 3.331zm-27.326-1.245h.532c1.421 0 2.363-.157 2.82-.467.458-.313.682-.855.682-1.627 0-.811-.244-1.387-.735-1.727-.49-.344-1.412-.513-2.767-.513h-.532v4.334zm8.393 9.455h-4.064l-4.329-7.7v7.7h-3.53V55.52h5.053c2.001 0 3.501.388 4.5 1.169.995.777 1.494 1.942 1.494 3.508 0 1.133-.34 2.1-1.02 2.904-.685.809-1.565 1.278-2.645 1.413l4.541 7.493zm-30.318 0l6.276-16.487h4.032l6.363 16.487h-4.007l-1.341-3.505h-6.388l-1.149 3.505H77zm10.5-6.27l-1.849-5.33a10.42 10.42 0 0 1-.2-.81c-.084-.383-.17-.853-.26-1.41a53.662 53.662 0 0 1-.281 1.437c-.09.427-.158.708-.204.851l-1.778 5.262H87.5z" fill="#FFF"/>
  </g>
</svg>
